# xmcd
#
# Track frame offsets:
#	150
#	26055
#	48707
#	78487
#	97712
#	116600
#	132920
#	156985
#	173720
#	187667
#	204440
#	221825
#
# Disc length: 3260 seconds
#
# Revision: 0
# Processed by: cddbd v1.5.2PL0 Copyright (c) Steve Scherf et al.
# Submitted via: audiograbber 1.82.02
#
DISCID=9e0cba0c
DTITLE=The New Radicals - Maybe You've Been Brainwashed Too
DYEAR=1998
DGENRE=Rock
TTITLE0=Mother We Just Can't Get Enough
TTITLE1=You Get What You Give
TTITLE2=I Hope I Didn't Just Give Away The Ending
TTITLE3=I Don't Wanna Die Anymore
TTITLE4=Jehovah Made This Whole Joint For You
TTITLE5=Someday We'll Know
TTITLE6=Maybe You've Been Brainwashed Too
TTITLE7=In Need of a Miracle
TTITLE8=Gotta Stay High
TTITLE9=Technicolor Lover
TTITLE10=Flowers
TTITLE11=Crying Like a Church on Monday
EXTD=
EXTT0=
EXTT1=
EXTT2=
EXTT3=
EXTT4=
EXTT5=
EXTT6=
EXTT7=
EXTT8=
EXTT9=
EXTT10=
EXTT11=
PLAYORDER=
